<?xml version="1.0" encoding="UTF-8"?>
<svg id="Layer_1" data-name="Layer 1" xmlns="http://www.w3.org/2000/svg" xmlns:xlink="http://www.w3.org/1999/xlink" viewBox="0 0 1448.13 833.71">
  <defs>
    <style>
      .cls-1 {
        fill: url(#linear-gradient);
      }

      .cls-1, .cls-2 {
        stroke-width: 0px;
      }

      .cls-2 {
        fill: #6b334b;
      }
    </style>
    <linearGradient id="linear-gradient" x1="718.99" y1="486.8" x2="718.99" y2="0" gradientUnits="userSpaceOnUse">
      <stop offset="0" stop-color="#6b334b"/>
      <stop offset=".23" stop-color="#c9625c"/>
      <stop offset=".5" stop-color="#fca53f"/>
      <stop offset=".76" stop-color="#ffb082"/>
      <stop offset="1" stop-color="#ffd8a1"/>
    </linearGradient>
  </defs>
  <g>
    <path class="cls-2" d="M0,574.26h54.78c38.12,0,57.66,22.03,57.66,49.04s-19.54,49.04-57.85,49.04h-18.2v26.05H0v-124.13ZM55.55,641.5c10.73,0,18.39-8.04,18.39-18.2s-7.66-18.2-18.2-18.2h-19.35v36.4h19.15Z"/>
    <path class="cls-2" d="M123.69,636.33c0-35.44,26.63-63.98,66.47-63.98s66.66,28.54,66.66,63.98-26.82,64.36-66.66,64.36-66.47-28.54-66.47-64.36ZM218.89,636.33c0-18.01-11.87-31.03-28.73-31.03-15.7,0-28.54,13.02-28.54,31.03s11.88,31.41,28.54,31.41,28.73-13.02,28.73-31.41Z"/>
    <path class="cls-2" d="M259.25,574.26h37.35l13.41,69.53c.57,3.45,1.34,6.32,1.91,9.58.76-3.26,1.34-5.17,2.3-9.58l16.28-69.53h36.2l16.09,69.53c.96,4.41,1.53,6.32,2.29,9.58.77-3.26,1.34-5.56,2.11-9.58l14.94-69.53h35.82l-31.42,124.13h-38.31l-16.86-67.23c-1.15-4.41-1.91-8.24-2.87-12.45-.96,4.21-1.72,8.04-2.87,12.45l-16.86,67.23h-38.11l-31.42-124.13Z"/>
    <path class="cls-2" d="M449.96,574.26h98.65v30.84h-62.25v15.14h59.77v30.46h-59.77v16.85h64.55v30.84h-100.95v-124.13Z"/>
    <path class="cls-2" d="M565.42,574.26h36.39v93.29h66.08v30.84h-102.48v-124.13Z"/>
    <path class="cls-2" d="M683.17,574.26h36.39v93.29h66.08v30.84h-102.48v-124.13Z"/>
    <path class="cls-2" d="M843.43,574.26h59.96c20.68,0,41.94,6.9,41.94,34.29,0,7.66-4.21,17.24-10.92,21.65,11.87,3.83,21.46,13.98,21.46,30.84,0,27.39-23.37,37.35-50,37.35h-62.44v-124.13ZM900.13,622.72c8.43,0,11.11-3.26,11.11-8.43,0-5.74-2.68-9.19-11.11-9.19h-20.3v17.62h20.3ZM904.92,667.55c7.08,0,13.02-1.34,13.02-8.81s-5.94-8.81-13.02-8.81h-25.1v17.62h25.1Z"/>
    <path class="cls-2" d="M972.29,649.16v-74.9h36.39v72.79c0,14.94,8.62,20.69,18.97,20.69s18.97-5.74,18.97-20.69v-72.79h36.39v74.9c0,34.1-23.94,51.53-55.36,51.53s-55.36-17.43-55.36-51.53Z"/>
    <path class="cls-2" d="M1135.82,605.1h-38.88v-30.84h114.16v30.84h-38.88v93.29h-36.39v-93.29Z"/>
    <path class="cls-2" d="M1257.59,605.1h-38.88v-30.84h114.16v30.84h-38.88v93.29h-36.39v-93.29Z"/>
    <path class="cls-2" d="M1347.19,574.26h98.65v30.84h-62.26v15.14h59.77v30.46h-59.77v16.85h64.55v30.84h-100.94v-124.13Z"/>
  </g>
  <g>
    <path class="cls-2" d="M212.59,805.91c0-15.27,12.03-27.64,28.3-27.64,6.97,0,13.37,2.33,18.1,6.31l-5.56,6.47c-3.65-2.82-7.64-4.07-11.87-4.07-11.12,0-18.92,8.63-18.92,18.92s7.8,19.09,18.35,19.09c5.23,0,10.04-1.91,13.52-5.31l5.89,6.64c-4.98,4.57-11.79,7.39-19.5,7.39-16.27,0-28.3-12.37-28.3-27.8Z"/>
    <path class="cls-2" d="M283.87,779.1h9.63v21.5h26.23v-21.5h9.63v53.78h-9.63v-24.07h-26.23v24.07h-9.63v-53.78Z"/>
    <path class="cls-2" d="M357.41,779.1h22.74c15.43,0,23.65,9.21,23.65,20.58,0,7.22-3.9,14.02-11.04,17.43l11.87,15.77h-11.21l-9.38-13.11c-1.5.25-3.16.41-4.82.41h-12.2v12.7h-9.63v-53.78ZM380.56,811.88c7.72,0,13.11-5.48,13.11-12.2s-5.39-12.36-13.03-12.36h-13.61v24.57h13.53Z"/>
    <path class="cls-2" d="M429.36,779.1h9.63v53.78h-9.63v-53.78Z"/>
    <path class="cls-2" d="M464.88,825.99l3.73-7.3c4.4,3.57,9.8,6.31,17.84,6.31,5.81,0,11.62-2.74,11.62-7.64s-5.56-6.39-11.04-7.72c-9.88-2.32-20.09-5.48-20.09-16.19,0-10.04,9.55-15.19,19.5-15.19,7.72,0,13.69,2.16,19.09,5.81l-3.73,7.39c-4.81-3.07-9.8-4.48-15.35-4.48-3.57,0-9.71,1.49-9.71,6.39,0,4.32,4.82,5.73,11.29,7.3,10.21,2.41,20.09,6.23,20.09,16.68,0,11.29-11.12,16.35-21.74,16.35-11.71,0-17.93-4.4-21.5-7.72Z"/>
    <path class="cls-2" d="M548.79,787.4h-18.93v-8.3h47.48v8.3h-18.93v45.48h-9.62v-45.48Z"/>
    <path class="cls-2" d="M601.48,779.1h9.63v53.78h-9.63v-53.78Z"/>
    <path class="cls-2" d="M658.59,779.1h9.13l24.23,53.78h-9.79l-4.23-9.3h-29.55l-4.23,9.3h-9.79l24.23-53.78ZM674.6,815.95l-6.14-13.94c-2.33-5.31-5.31-12.53-5.31-12.53,0,0-2.91,7.14-5.31,12.53l-6.14,13.94h22.91Z"/>
    <path class="cls-2" d="M715.18,779.1h9.8l19.25,26.39c3.82,5.23,8.22,12.7,8.22,12.7v-39.09h9.62v53.78h-9.96l-18.34-25.06c-4.65-6.39-8.96-13.7-8.96-13.7v38.76h-9.63v-53.78Z"/>
    <path class="cls-2" d="M822.83,805.91c0-15.27,12.03-27.64,28.3-27.64,6.97,0,13.36,2.33,18.09,6.31l-5.56,6.47c-3.65-2.82-7.63-4.07-11.86-4.07-11.12,0-18.93,8.63-18.93,18.92s7.8,19.09,18.34,19.09c5.23,0,10.05-1.91,13.53-5.31l5.9,6.64c-4.98,4.57-11.79,7.39-19.5,7.39-16.27,0-28.3-12.37-28.3-27.8Z"/>
    <path class="cls-2" d="M894.11,779.1h9.63v21.5h26.22v-21.5h9.63v53.78h-9.63v-24.07h-26.22v24.07h-9.63v-53.78Z"/>
    <path class="cls-2" d="M967.06,811.47v-32.37h9.62v31.87c0,8.88,4.98,13.94,13.28,13.94s13.2-5.06,13.2-13.94v-31.87h9.62v32.37c0,13.86-8.96,22.25-22.82,22.25s-22.9-8.39-22.9-22.25Z"/>
    <path class="cls-2" d="M1040.26,779.1h22.74c15.44,0,23.66,9.21,23.66,20.58,0,7.22-3.91,14.02-11.05,17.43l11.87,15.77h-11.21l-9.37-13.11c-1.49.25-3.16.41-4.82.41h-12.19v12.7h-9.63v-53.78ZM1063.41,811.88c7.73,0,13.12-5.48,13.12-12.2s-5.39-12.36-13.03-12.36h-13.61v24.57h13.52Z"/>
    <path class="cls-2" d="M1110.14,805.91c0-15.27,12.04-27.64,28.31-27.64,6.97,0,13.36,2.33,18.09,6.31l-5.56,6.47c-3.66-2.82-7.64-4.07-11.86-4.07-11.12,0-18.93,8.63-18.93,18.92s7.8,19.09,18.34,19.09c5.23,0,10.05-1.91,13.53-5.31l5.89,6.64c-4.97,4.57-11.78,7.39-19.5,7.39-16.27,0-28.31-12.37-28.31-27.8Z"/>
    <path class="cls-2" d="M1181.43,779.1h9.63v21.5h26.22v-21.5h9.63v53.78h-9.63v-24.07h-26.22v24.07h-9.63v-53.78Z"/>
  </g>
  <path class="cls-1" d="M892.06,256.53l-37,27.73c3.99-13.22,6.09-27.04,6.09-41.06,0-4.68-.24-9.29-.69-13.86l102.5-16.56-3.73-23.11-102.97,16.63c-6.31-23.45-18.48-44.51-34.84-61.53l69.84-80.12-17.65-15.39-69.72,79.98c-20.77-15.52-45.92-25.46-73.21-27.7V0h-23.42v101.56c-27.16,2.23-52.19,12.09-72.9,27.48l-69.53-79.76-17.65,15.39,69.61,79.85c-16.47,17.05-28.73,38.17-35.07,61.71l-103-16.64-3.73,23.11,102.51,16.56c-.45,4.59-.69,9.24-.69,13.95,0,14,2.1,27.83,6.1,41.06l-37-27.73-212.9,230.26h771.93l-212.89-230.26ZM952.22,356.09l-32.45,21-52.21-18.73-30.99-30.98,52.63-39.44,63.02,68.16ZM718.99,124.45c65.48,0,118.75,53.27,118.75,118.75,0,23.44-7.03,46.17-19.83,65.51l-98.92-98.92-98.94,98.94c-12.8-19.34-19.81-42.14-19.81-65.53,0-65.48,53.27-118.75,118.75-118.75ZM548.78,287.94l52.63,39.44-30.98,30.98-52.21,18.73-32.45-21,63.02-68.16ZM386.56,463.38l83.07-89.84,45.58,29.5,50.75-18.2v78.54h-179.4ZM848.61,463.38h-117.91v-74.09h37.99v-23.41h-37.99v-50.95h-23.42v50.95h-37.99v23.41h37.99v74.09h-117.91v-90.86l129.62-129.62,129.62,129.62v90.86ZM872.03,384.84l50.74,18.2,45.59-29.5,83.06,89.84h-179.39v-78.54Z"/>
</svg>